<svg width="36" height="36" viewBox="0 0 36 36" fill="none" xmlns="http://www.w3.org/2000/svg">
<circle cx="18" cy="18" r="18" fill="#F95C69"/>
<path d="M13.7096 33C13.4258 33 13.1747 32.8919 12.9563 32.6757C12.738 32.4811 12.6288 32.2324 12.6288 31.9297C12.6288 31.6486 12.7271 31.4108 12.9236 31.2162C13.1419 31.0216 13.4039 30.9243 13.7096 30.9243C15.6965 30.9027 17.1048 30.5243 17.9345 29.7892C18.786 29.0541 19.2118 27.8108 19.2118 26.0595C19.2118 25.5405 19.1681 25.0432 19.0808 24.5676C19.0153 24.0703 18.917 23.6054 18.786 23.173H3.98253C3.69869 23.173 3.45852 23.0757 3.26201 22.8811C3.08734 22.6865 3 22.4595 3 22.2C3 21.9405 3.08734 21.7243 3.26201 21.5514C3.45852 21.3568 3.69869 21.2595 3.98253 21.2595H17.869C17.4105 20.5027 16.821 19.8216 16.1004 19.2162C15.9039 19.0432 15.7838 18.827 15.7402 18.5676C15.6965 18.2865 15.7729 18.0378 15.9694 17.8216C16.1878 17.6054 16.4389 17.4865 16.7227 17.4649C17.0065 17.4216 17.2686 17.4973 17.5087 17.6919C17.6397 17.7784 17.7707 17.8757 17.9017 17.9838C18.0328 18.0919 18.1528 18.2 18.262 18.3081C18.6332 18.0919 19.0699 17.8432 19.5721 17.5622C20.0742 17.2595 20.5546 16.9676 21.0131 16.6865C21.4716 16.4054 21.81 16.2 22.0284 16.0703C22.5087 15.7892 22.7162 15.5081 22.6507 15.227C22.5852 14.9459 22.2686 14.8054 21.7009 14.8054H10.2707C9.9869 14.8054 9.74672 14.7081 9.55022 14.5135C9.37555 14.3189 9.28821 14.0919 9.28821 13.8324C9.28821 13.5513 9.37555 13.3243 9.55022 13.1514C9.74672 12.9568 9.9869 12.8595 10.2707 12.8595H22.5852C23.3275 12.8595 23.917 13.0108 24.3537 13.3135C24.8122 13.6162 25.0961 13.9946 25.2052 14.4486C25.3362 14.9027 25.2926 15.3676 25.0742 15.8432C24.8777 16.3189 24.4847 16.7405 23.8952 17.1081C23.393 17.4324 22.7162 17.8432 21.8646 18.3405C21.0131 18.8378 20.238 19.3027 19.5393 19.7351C19.714 19.973 19.8668 20.2216 19.9978 20.4811C20.1507 20.7189 20.2817 20.9784 20.3908 21.2595H32.0175C32.3013 21.2595 32.5306 21.3568 32.7052 21.5514C32.9017 21.7243 33 21.9405 33 22.2C33 22.4595 32.9017 22.6865 32.7052 22.8811C32.5306 23.0757 32.3013 23.173 32.0175 23.173H21.0459C21.155 23.6486 21.2314 24.1351 21.2751 24.6324C21.3406 25.1297 21.3734 25.6378 21.3734 26.1568C21.3734 28.5351 20.762 30.2649 19.5393 31.3459C18.3384 32.4487 16.3952 33 13.7096 33ZM5.39083 15.0324C5.10699 15.0324 4.8559 14.9351 4.63755 14.7405C4.44105 14.5459 4.34279 14.2973 4.34279 13.9946V11.4973C4.34279 10.027 4.71397 8.97838 5.45633 8.35135C6.19869 7.72432 7.49782 7.41081 9.35371 7.41081H16.821V4.1027C16.821 3.77838 16.9301 3.51892 17.1485 3.32432C17.3668 3.10811 17.6288 3 17.9345 3C18.2402 3 18.5022 3.10811 18.7205 3.32432C18.9607 3.51892 19.0808 3.77838 19.0808 4.1027V7.41081H26.6463C28.5022 7.41081 29.8013 7.72432 30.5437 8.35135C31.3079 8.97838 31.69 10.027 31.69 11.4973V13.9946C31.69 14.2973 31.5808 14.5459 31.3624 14.7405C31.1659 14.9351 30.9148 15.0324 30.6092 15.0324C30.3253 15.0324 30.0742 14.9351 29.8559 14.7405C29.6594 14.5459 29.5611 14.2973 29.5611 13.9946V11.5297C29.5611 10.7081 29.3537 10.1351 28.9389 9.81081C28.524 9.46486 27.7489 9.29189 26.6135 9.29189H9.41921C8.28384 9.29189 7.50873 9.46486 7.09389 9.81081C6.67904 10.1351 6.47162 10.7081 6.47162 11.5297V13.9946C6.47162 14.2973 6.36245 14.5459 6.1441 14.7405C5.9476 14.9351 5.69651 15.0324 5.39083 15.0324Z" fill="white"/>
</svg>
