<svg width="370" height="376" viewBox="0 0 370 376" fill="none" xmlns="http://www.w3.org/2000/svg">
<path d="M136.2 375.4C130.867 375.4 126.333 373.667 122.6 370.2C118.867 366.733 116.867 362.2 116.6 356.6C116.6 351.8 118.467 347.667 122.2 344.2C125.933 340.733 130.6 339 136.2 339C157 338.467 171.933 334.333 181 326.6C190.067 318.6 194.6 305.267 194.6 286.6C194.6 275.4 193 265.267 189.8 256.2H16.6C11.5333 256.2 7.53335 254.6 4.60001 251.4C1.66668 248.2 0.200012 244.333 0.200012 239.8C0.200012 235.267 1.66668 231.4 4.60001 228.2C7.53335 225 11.5333 223.4 16.6 223.4H170.6C168.733 221.267 166.733 219.267 164.6 217.4C162.467 215.267 160.333 213.267 158.2 211.4C154.733 208.467 152.467 204.733 151.4 200.2C150.6 195.667 151.933 191.4 155.4 187.4C158.867 183.667 163 181.533 167.8 181C172.6 180.2 177.4 181.267 182.2 184.2L189.4 190.2C195.533 186.467 202.2 182.467 209.4 178.2C216.6 173.933 221.533 170.867 224.2 169C229.267 166.067 231.4 163.133 230.6 160.2C230.067 157 226.733 155.4 220.6 155.4H95C89.9334 155.4 85.9334 153.8 83 150.6C80.0667 147.4 78.6 143.533 78.6 139C78.6 134.467 80.0667 130.6 83 127.4C85.9334 123.933 89.9334 122.2 95 122.2H240.6C250.733 122.2 258.867 124.333 265 128.6C271.4 132.867 275.533 138.333 277.4 145C279.267 151.667 278.733 158.6 275.8 165.8C272.867 172.733 267.267 178.867 259 184.2C253.4 187.933 246.2 192.733 237.4 198.6C228.6 204.2 220.067 209.533 211.8 214.6C213.667 217 215.4 219.933 217 223.4H353C358.067 223.4 362.067 225 365 228.2C367.933 231.4 369.4 235.267 369.4 239.8C369.4 244.333 367.933 248.2 365 251.4C362.067 254.6 358.067 256.2 353 256.2H229.4C231.8 266.067 233 276.867 233 288.6C233 318.467 225.133 340.333 209.4 354.2C193.933 368.333 169.533 375.4 136.2 375.4ZM34.2 153C29.1333 153 24.7333 151.4 21 148.2C17.2667 144.733 15.4 140.2 15.4 134.6V109C15.4 89 20.4667 74.7333 30.6 66.2C41 57.6666 58.6 53.4 83.4 53.4H163.8V19.8C163.8 13.6666 165.8 8.86663 169.8 5.39996C173.8 1.93329 178.6 0.199951 184.2 0.199951C189.8 0.199951 194.467 1.93329 198.2 5.39996C202.2 8.86663 204.2 13.6666 204.2 19.8V53.4H287C311.8 53.4 329.267 57.6666 339.4 66.2C349.533 74.7333 354.6 89 354.6 109V134.6C354.6 140.2 352.733 144.733 349 148.2C345.533 151.4 341.133 153 335.8 153C330.733 153 326.333 151.533 322.6 148.6C318.867 145.4 317 140.867 317 135V109.8C317 100.733 314.733 94.4666 310.2 91C305.933 87.2666 297.8 85.4 285.8 85.4H84.6C72.6 85.4 64.3333 87.2666 59.8 91C55.5333 94.4666 53.4 100.733 53.4 109.8V135C53.4 140.867 51.5333 145.4 47.8 148.6C44.0667 151.533 39.5333 153 34.2 153Z" fill="white"/>
</svg>
