<svg width="373" height="382" viewBox="0 0 373 382" fill="none" xmlns="http://www.w3.org/2000/svg">
<path d="M141.4 381.2C134.467 381.2 128.467 378.933 123.4 374.4C118.6 369.867 116.2 364 116.2 356.8C116.2 350.667 118.6 345.333 123.4 340.8C128.2 336.267 134.333 333.867 141.8 333.6C159.4 333.067 171.933 329.6 179.4 323.2C187.133 316.533 191 305.2 191 289.2C191 280.133 189.8 271.867 187.4 264.4H21.8C15.4 264.4 10.2 262.4 6.20001 258.4C2.46667 254.133 0.600006 249.067 0.600006 243.2C0.600006 237.333 2.46667 232.4 6.20001 228.4C10.2 224.4 15.4 222.4 21.8 222.4H155C151.267 218.667 148.867 214 147.8 208.4C147 202.8 148.733 197.6 153 192.8C157.267 187.733 162.467 184.667 168.6 183.6C174.733 182.533 181 184 187.4 188C188.467 188.533 189.4 189.2 190.2 190C191.267 190.533 192.333 191.2 193.4 192L215.8 178C220.333 175.333 222.2 172.667 221.4 170C220.867 167.333 218.067 166 213 166H101.8C95.1334 166 89.8 164 85.8 160C82.0667 155.733 80.2 150.667 80.2 144.8C80.2 138.933 82.0667 134 85.8 130C89.8 125.733 95.1334 123.6 101.8 123.6H241.8C253.267 123.6 262.467 126 269.4 130.8C276.6 135.6 281.267 141.6 283.4 148.8C285.533 156 285 163.6 281.8 171.6C278.867 179.333 273 186.267 264.2 192.4C259.4 195.867 253 200.133 245 205.2C237.267 210.267 229.533 215.333 221.8 220.4L223 222.4H351.8C358.2 222.4 363.267 224.4 367 228.4C371 232.4 373 237.333 373 243.2C373 249.067 371 254.133 367 258.4C363.267 262.4 358.2 264.4 351.8 264.4H239.4C241 273.2 241.8 282.4 241.8 292C241.8 322.667 233.533 345.2 217 359.6C200.733 374 175.533 381.2 141.4 381.2ZM39.8 158C33.1333 158 27.2667 155.867 22.2 151.6C17.4 147.333 15 141.467 15 134V113.6C15 91.4667 20.6 75.8667 31.8 66.8001C43.2667 57.7334 62.3333 53.2001 89 53.2001H159V26.4001C159 18.4001 161.533 12.1334 166.6 7.60006C171.933 3.06672 178.333 0.800049 185.8 0.800049C193.267 0.800049 199.533 3.06672 204.6 7.60006C209.933 12.1334 212.6 18.4001 212.6 26.4001V53.2001H285.4C312.333 53.2001 331.4 57.7334 342.6 66.8001C353.8 75.8667 359.4 91.4667 359.4 113.6V134C359.4 141.467 357 147.333 352.2 151.6C347.667 155.867 341.933 158 335 158C328.333 158 322.467 156 317.4 152C312.6 148 310.2 142.267 310.2 134.8V114.8C310.2 107.067 308.2 101.6 304.2 98.4001C300.467 94.9334 293.4 93.2001 283 93.2001H91.4C81.2667 93.2001 74.2 94.9334 70.2 98.4001C66.2 101.6 64.2 107.067 64.2 114.8V134.8C64.2 142.267 61.8 148 57 152C52.4667 156 46.7333 158 39.8 158Z" fill="white"/>
</svg>
